<?xml version="1.0" encoding="UTF-8" standalone="no"?><!DOCTYPE svg PUBLIC "-//W3C//DTD SVG 1.1//EN" "http://www.w3.org/Graphics/SVG/1.1/DTD/svg11.dtd"><svg width="100%" height="100%" viewBox="0 0 4267 5692" version="1.1" xmlns="http://www.w3.org/2000/svg" xmlns:xlink="http://www.w3.org/1999/xlink" xml:space="preserve" xmlns:serif="http://www.serif.com/" style="fill-rule:evenodd;clip-rule:evenodd;stroke-linejoin:round;stroke-miterlimit:2;"><rect id="Artboard1" x="0" y="0" width="4266.67" height="5691.67" style="fill:none;"/><g id="Artboard11" serif:id="Artboard1"><g><path d="M147.189,104.874c-0.214,1.551 -0.183,3.129 -0.266,4.696c-20.877,392.985 289.215,933.251 708.17,1058.24c389.478,116.189 1405.65,366.851 1610.26,419.716c199.647,51.586 451.272,107.836 602.948,174.444c313.449,137.65 650.968,392.772 818.895,829.608c0.914,2.379 2.011,3.855 3.355,6.169c2.805,4.831 10.382,9.852 18.29,9.709c7.257,-0.13 15.047,-4.633 18.419,-10.578c1.168,-2.057 1.928,-3.841 2.918,-5.994c87.167,-189.62 186.662,-394.784 190.476,-668.61c7.192,-516.388 -419.57,-944.889 -710.688,-1020.34c-1042.47,-270.18 -2655.45,-695.184 -3203.07,-829.111c-1.318,-0.323 -2.635,-0.62 -3.935,-0.962c-11.959,-3.143 -26.969,-2.682 -37.826,3.661c-9.963,5.82 -16.219,16.836 -17.94,29.356Z" style="fill:url(#_Linear1);"/><path d="M1087.89,1693.27c-0.213,1.552 -0.192,3.128 -0.266,4.697c-20.954,445.702 286.781,906.784 717.469,1059.93c147.354,52.398 295.893,75.274 413.452,105.522c187.957,48.361 330.645,97.478 420.261,146.013c309.05,167.379 531.756,349.854 720.437,788.136c1.007,2.341 1.885,4.059 3.355,6.169c3.171,4.552 11.692,11.007 20.425,11.556c8.366,0.526 16.926,-4.613 21.211,-11.026c1.314,-1.967 1.927,-3.841 2.917,-5.994c87.168,-189.62 187.07,-385.331 190.884,-659.157c7.192,-516.388 -419.449,-943.691 -729.679,-1030.16c-391.818,-109.212 -639.061,-163.259 -846.821,-218.04c-348.943,-92.007 -530.515,-138.867 -873.944,-229.702c-1.311,-0.347 -2.635,-0.62 -3.934,-0.962c-12.453,-3.272 -28.413,-2.651 -39.468,4.324c-9.306,5.871 -14.655,16.735 -16.299,28.693Z" style="fill:url(#_Linear2);"/><path d="M2280.03,5432.73c38.991,-581.246 176.721,-1819.62 179.377,-2014.15c0.039,-2.844 0.464,-5.763 0.945,-8.385c0.997,-5.443 6.862,-15.333 15.504,-19.642c8.642,-4.309 20.061,-3.037 26.283,-0.341c2.677,1.159 3.745,1.834 5.92,3.296c175.326,117.834 334.048,260.07 455.76,505.389c90.263,181.93 113.84,388.588 90.677,576.475c-24.127,195.703 -98.244,371.853 -163.841,520.083c-32.096,72.529 -184.803,403.893 -206.226,463.658c-43.977,122.687 -124.756,179.31 -257.649,158.307c-86.921,-13.737 -151.617,-112.138 -146.75,-184.69Z" style="fill:#222b62;"/></g></g><defs><linearGradient id="_Linear1" x1="0" y1="0" x2="1" y2="0" gradientUnits="userSpaceOnUse" gradientTransform="matrix(508.57,-1724.15,1724.15,508.57,1784.88,2153.17)"><stop offset="0" style="stop-color:#3f56a6;stop-opacity:1"/><stop offset="0.55" style="stop-color:#3aa5dd;stop-opacity:1"/><stop offset="1" style="stop-color:#38c6f4;stop-opacity:1"/></linearGradient><linearGradient id="_Linear2" x1="0" y1="0" x2="1" y2="0" gradientUnits="userSpaceOnUse" gradientTransform="matrix(759.728,-1505.77,1505.77,759.728,2028.53,3592.62)"><stop offset="0" style="stop-color:#002366;stop-opacity:1"/><stop offset="0.5" style="stop-color:#002cd8;stop-opacity:1"/><stop offset="1" style="stop-color:#002fff;stop-opacity:1"/></linearGradient></defs></svg>
